<?xml version="1.0" encoding="utf-8"?>
<!-- Generator: Adobe Illustrator 24.3.0, SVG Export Plug-In . SVG Version: 6.00 Build 0)  -->
<svg version="1.1" id="Layer_1" xmlns="http://www.w3.org/2000/svg" xmlns:xlink="http://www.w3.org/1999/xlink" x="0px" y="0px"
	 viewBox="0 0 172.3 90.8" style="enable-background:new 0 0 172.3 90.8;" xml:space="preserve">
<style type="text/css">
	.st0{fill:#222222;}
</style>
<g>
	<g>
		<path class="st0" d="M68.1,34.1v-17H79v2.6h-7.8v4.2h7v2.6h-7v5h8.4v2.6C79.6,34.1,68.1,34.1,68.1,34.1z"/>
		<path class="st0" d="M92.3,33.4c-0.6,0.1-1.3,0.3-2.2,0.5c-0.9,0.2-1.9,0.2-3,0.2c-1,0-1.9-0.1-2.6-0.4c-0.7-0.3-1.3-0.7-1.7-1.2
			c-0.4-0.5-0.7-1.1-0.9-1.9c-0.2-0.7-0.3-1.5-0.3-2.4V21h3v6.7c0,1.4,0.2,2.4,0.6,2.9c0.4,0.6,1.1,0.9,2.1,0.9c0.4,0,0.7,0,1.1,0
			s0.7-0.1,0.9-0.1V21h3V33.4z"/>
		<path class="st0" d="M103.3,23.9c-0.2-0.1-0.6-0.2-1-0.3s-0.9-0.1-1.5-0.1c-0.3,0-0.7,0-1,0.1c-0.4,0.1-0.6,0.1-0.8,0.2v10.3h-3
			V21.8c0.6-0.2,1.3-0.4,2.1-0.6c0.9-0.2,1.8-0.3,2.9-0.3c0.2,0,0.4,0,0.7,0c0.3,0,0.5,0.1,0.8,0.1s0.5,0.1,0.8,0.1
			c0.2,0.1,0.4,0.1,0.6,0.2L103.3,23.9z"/>
		<path class="st0" d="M117.3,27.3c0,1-0.1,1.9-0.4,2.8c-0.3,0.8-0.7,1.5-1.3,2.1c-0.5,0.6-1.2,1-2,1.4c-0.8,0.3-1.6,0.5-2.5,0.5
			s-1.8-0.2-2.5-0.5c-0.8-0.3-1.4-0.8-1.9-1.4c-0.5-0.6-1-1.3-1.3-2.1s-0.5-1.8-0.5-2.8s0.2-1.9,0.5-2.8c0.3-0.8,0.7-1.5,1.3-2.1
			c0.5-0.6,1.2-1,2-1.4c0.8-0.3,1.6-0.5,2.5-0.5s1.7,0.2,2.5,0.5s1.4,0.8,2,1.4c0.5,0.6,1,1.3,1.3,2.1
			C117.2,25.4,117.3,26.3,117.3,27.3z M114.3,27.3c0-1.3-0.3-2.3-0.8-3s-1.3-1.1-2.3-1.1s-1.7,0.4-2.3,1.1c-0.5,0.7-0.8,1.8-0.8,3
			c0,1.3,0.3,2.3,0.8,3.1s1.3,1.1,2.3,1.1s1.7-0.4,2.3-1.1C114,29.6,114.3,28.6,114.3,27.3z"/>
		<path class="st0" d="M131.8,27.7c0,1-0.1,1.9-0.4,2.7c-0.3,0.8-0.6,1.5-1.1,2.1c-0.5,0.6-1.1,1-1.8,1.4c-0.7,0.3-1.5,0.5-2.4,0.5
			c-0.6,0-1.2-0.1-1.7-0.2c-0.5-0.1-0.9-0.3-1.3-0.5v5h-3v-17c0.6-0.2,1.3-0.3,2.2-0.5c0.9-0.1,1.8-0.2,2.8-0.2s1.9,0.2,2.7,0.5
			s1.5,0.8,2,1.3c0.6,0.6,1,1.3,1.3,2.1C131.7,25.7,131.8,26.6,131.8,27.7z M128.8,27.7c0-1.3-0.3-2.4-0.9-3.1
			c-0.6-0.7-1.6-1.1-2.9-1.1c-0.3,0-0.6,0-0.9,0c-0.3,0-0.6,0.1-0.9,0.2V31c0.3,0.2,0.6,0.3,1,0.5s0.9,0.2,1.4,0.2
			c1.1,0,1.9-0.4,2.4-1.1C128.5,29.9,128.8,28.9,128.8,27.7z"/>
		<path class="st0" d="M134,27.4c0-1.1,0.2-2.1,0.5-3s0.8-1.6,1.3-2.1c0.6-0.6,1.2-1,1.9-1.3s1.5-0.4,2.2-0.4c1.8,0,3.1,0.5,4.1,1.6
			s1.5,2.7,1.5,4.9c0,0.2,0,0.3,0,0.6c0,0.2,0,0.4,0,0.6H137c0.1,1,0.4,1.8,1.1,2.4c0.6,0.6,1.6,0.8,2.8,0.8c0.7,0,1.4-0.1,2-0.2
			c0.6-0.1,1.1-0.3,1.4-0.4l0.4,2.4c-0.2,0.1-0.4,0.2-0.7,0.3s-0.6,0.2-1,0.2c-0.4,0.1-0.8,0.1-1.2,0.2c-0.4,0-0.9,0.1-1.3,0.1
			c-1.1,0-2.1-0.2-2.9-0.5c-0.8-0.3-1.5-0.8-2.1-1.4c-0.5-0.6-0.9-1.3-1.2-2.1C134.2,29.3,134,28.4,134,27.4z M142.6,26.1
			c0-0.4-0.1-0.8-0.2-1.2c-0.1-0.4-0.3-0.7-0.5-1s-0.5-0.5-0.8-0.6c-0.3-0.2-0.7-0.2-1.1-0.2c-0.5,0-0.9,0.1-1.2,0.3
			s-0.6,0.4-0.9,0.7c-0.2,0.3-0.4,0.6-0.6,1c-0.1,0.4-0.2,0.7-0.3,1.1L142.6,26.1L142.6,26.1z"/>
		<path class="st0" d="M152.9,20.7c1,0,1.8,0.1,2.5,0.4c0.7,0.2,1.2,0.6,1.6,1c0.4,0.4,0.7,1,0.9,1.6s0.3,1.3,0.3,2.1v7.8
			c-0.5,0.1-1.2,0.2-2.1,0.4c-0.9,0.1-2,0.2-3.1,0.2c-0.8,0-1.5-0.1-2.1-0.2s-1.2-0.4-1.6-0.7c-0.5-0.3-0.8-0.8-1.1-1.3
			c-0.3-0.5-0.4-1.2-0.4-1.9s0.1-1.4,0.4-1.9c0.3-0.5,0.7-0.9,1.2-1.2s1.1-0.5,1.7-0.7c0.6-0.1,1.3-0.2,2-0.2c0.3,0,0.7,0,1,0.1
			c0.4,0,0.7,0.1,1.2,0.2v-0.5c0-0.3,0-0.7-0.1-1s-0.2-0.6-0.4-0.8s-0.5-0.4-0.8-0.6c-0.3-0.1-0.8-0.2-1.3-0.2c-0.7,0-1.3,0-1.9,0.1
			c-0.6,0.1-1,0.2-1.4,0.3l-0.4-2.4c0.4-0.1,0.9-0.3,1.6-0.4C151.3,20.7,152.1,20.7,152.9,20.7z M153.1,31.7c0.9,0,1.6,0,2.1-0.1
			v-3.3c-0.2,0-0.4-0.1-0.7-0.1s-0.7-0.1-1-0.1s-0.7,0-1,0.1c-0.3,0-0.6,0.1-0.9,0.3c-0.3,0.1-0.5,0.3-0.7,0.6
			c-0.2,0.2-0.2,0.5-0.2,0.9c0,0.7,0.2,1.2,0.7,1.5C151.8,31.6,152.4,31.7,153.1,31.7z"/>
		<path class="st0" d="M161.6,21.6c0.6-0.2,1.3-0.3,2.2-0.5c0.9-0.1,1.9-0.2,3-0.2c1,0,1.9,0.1,2.6,0.4c0.7,0.3,1.3,0.7,1.7,1.2
			s0.7,1.1,0.9,1.9c0.2,0.7,0.3,1.5,0.3,2.4V34h-3v-6.8c0-0.7,0-1.3-0.1-1.8s-0.2-0.9-0.4-1.2s-0.5-0.5-0.8-0.7
			c-0.4-0.1-0.8-0.2-1.3-0.2c-0.4,0-0.8,0-1.2,0.1c-0.4,0-0.7,0.1-0.9,0.1v10.4h-3V21.6z"/>
		<path class="st0" d="M68.1,56.7v-17h10.8v2.6h-7.7v4.3H78v2.6h-6.8v7.4L68.1,56.7L68.1,56.7z"/>
		<path class="st0" d="M91.4,56.1c-0.6,0.1-1.3,0.3-2.2,0.5c-0.9,0.2-1.9,0.2-3,0.2c-1,0-1.9-0.1-2.6-0.4s-1.3-0.7-1.7-1.2
			c-0.4-0.5-0.7-1.1-0.9-1.9c-0.2-0.7-0.3-1.5-0.3-2.4v-7.2h3v6.7c0,1.4,0.2,2.4,0.6,2.9c0.4,0.6,1.1,0.9,2.1,0.9c0.4,0,0.7,0,1.1,0
			s0.7-0.1,0.9-0.1V43.6h3V56.1z"/>
		<path class="st0" d="M95,44.3c0.6-0.2,1.3-0.3,2.2-0.5c0.9-0.1,1.9-0.2,3-0.2c1,0,1.9,0.1,2.6,0.4s1.3,0.7,1.7,1.2
			c0.4,0.5,0.7,1.1,0.9,1.9c0.2,0.7,0.3,1.5,0.3,2.4v7.2h-3v-6.8c0-0.7,0-1.3-0.1-1.8s-0.2-0.9-0.4-1.2c-0.2-0.3-0.5-0.5-0.8-0.7
			c-0.4-0.1-0.8-0.2-1.3-0.2c-0.4,0-0.8,0-1.2,0.1c-0.4,0-0.7,0.1-0.9,0.1v10.4h-3C95,56.6,95,44.3,95,44.3z"/>
		<path class="st0" d="M120.1,56.1c-0.6,0.2-1.3,0.3-2.2,0.5c-0.9,0.1-1.8,0.2-2.8,0.2s-1.9-0.2-2.7-0.5s-1.5-0.8-2-1.3
			c-0.6-0.6-1-1.3-1.3-2.1c-0.3-0.8-0.5-1.8-0.5-2.8s0.1-1.9,0.4-2.8c0.3-0.8,0.6-1.5,1.1-2.1s1.1-1,1.8-1.4
			c0.7-0.3,1.5-0.5,2.4-0.5c0.6,0,1.2,0.1,1.6,0.2c0.5,0.1,0.9,0.3,1.2,0.5v-3.8l3-0.5V56.1z M111.5,50c0,1.3,0.3,2.3,0.9,3.1
			c0.6,0.7,1.5,1.1,2.6,1.1c0.5,0,0.9,0,1.2-0.1c0.3,0,0.6-0.1,0.8-0.1v-7.4c-0.3-0.2-0.6-0.3-1-0.5s-0.9-0.2-1.4-0.2
			c-1.1,0-1.9,0.4-2.4,1.1C111.8,47.7,111.5,48.7,111.5,50z"/>
		<path class="st0" d="M126.9,54.3c0.8,0,1.4-0.1,1.7-0.3c0.4-0.2,0.5-0.5,0.5-1c0-0.4-0.2-0.8-0.6-1.1c-0.4-0.3-1-0.6-1.9-0.9
			c-0.5-0.2-1-0.4-1.5-0.6s-0.8-0.5-1.2-0.8c-0.3-0.3-0.6-0.7-0.8-1.1s-0.3-0.9-0.3-1.5c0-1.2,0.4-2.1,1.3-2.8c0.9-0.7,2-1,3.5-1
			c0.8,0,1.5,0.1,2.2,0.2c0.7,0.1,1.2,0.3,1.5,0.4l-0.5,2.4c-0.3-0.1-0.7-0.3-1.3-0.4c-0.5-0.1-1.1-0.2-1.8-0.2
			c-0.6,0-1.1,0.1-1.5,0.3c-0.4,0.2-0.6,0.5-0.6,0.9c0,0.2,0,0.4,0.1,0.6s0.2,0.3,0.4,0.5c0.2,0.1,0.4,0.3,0.7,0.4s0.7,0.3,1.1,0.4
			c0.7,0.3,1.3,0.5,1.8,0.8s0.9,0.5,1.2,0.9c0.3,0.3,0.6,0.7,0.7,1.1c0.1,0.4,0.2,0.9,0.2,1.5c0,1.2-0.5,2.2-1.4,2.8
			c-0.9,0.6-2.2,0.9-3.9,0.9c-1.1,0-2-0.1-2.7-0.3c-0.7-0.2-1.2-0.3-1.4-0.5l0.5-2.5c0.4,0.2,1,0.4,1.6,0.5
			C125.4,54.2,126.1,54.3,126.9,54.3z"/>
	</g>
	<g>
		<path class="st0" d="M70.8,78.1c1.6,0,2.5-0.6,2.5-1.7c0-0.3-0.1-0.6-0.2-0.9c-0.1-0.2-0.3-0.5-0.6-0.6c-0.2-0.2-0.5-0.3-0.9-0.5
			c-0.3-0.1-0.7-0.3-1-0.4c-0.4-0.1-0.8-0.3-1.2-0.5c-0.4-0.2-0.7-0.4-1-0.6s-0.5-0.5-0.6-0.9c-0.2-0.3-0.2-0.7-0.2-1.2
			c0-1,0.3-1.7,1-2.3c0.7-0.6,1.6-0.8,2.8-0.8c0.7,0,1.3,0.1,1.9,0.2s1,0.3,1.2,0.5L74,69.7c-0.2-0.1-0.6-0.3-1-0.4s-1-0.2-1.6-0.2
			c-0.3,0-0.6,0-0.8,0.1c-0.3,0.1-0.5,0.2-0.7,0.3c-0.2,0.1-0.3,0.3-0.5,0.5c-0.1,0.2-0.2,0.4-0.2,0.7c0,0.3,0.1,0.6,0.2,0.8
			c0.1,0.2,0.3,0.4,0.5,0.5c0.2,0.2,0.5,0.3,0.8,0.4s0.6,0.3,0.9,0.4c0.5,0.2,0.9,0.4,1.3,0.6s0.8,0.4,1.1,0.7
			c0.3,0.3,0.5,0.6,0.7,1s0.2,0.8,0.2,1.4c0,1-0.4,1.7-1.1,2.3c-0.7,0.5-1.7,0.8-3,0.8c-0.4,0-0.9,0-1.2-0.1c-0.4-0.1-0.7-0.1-1-0.2
			s-0.5-0.2-0.8-0.3c-0.2-0.1-0.4-0.2-0.5-0.2l0.5-1.3c0.2,0.1,0.6,0.3,1.1,0.5C69.4,78,70,78.1,70.8,78.1z"/>
		<path class="st0" d="M76.6,71.2c0.3-0.1,0.8-0.2,1.4-0.3c0.6-0.1,1.2-0.1,2-0.1c0.5,0,1,0.1,1.4,0.2s0.7,0.4,0.9,0.6
			c0.1-0.1,0.2-0.1,0.4-0.2c0.2-0.1,0.4-0.2,0.6-0.3c0.2-0.1,0.5-0.2,0.8-0.2c0.3-0.1,0.6-0.1,0.9-0.1c0.6,0,1.2,0.1,1.6,0.3
			c0.4,0.2,0.7,0.5,1,0.8c0.2,0.3,0.4,0.8,0.5,1.2c0.1,0.5,0.1,1,0.1,1.6v4.7h-1.5V75c0-0.5,0-0.9-0.1-1.3c0-0.4-0.1-0.7-0.3-0.9
			c-0.1-0.2-0.3-0.4-0.6-0.5c-0.2-0.1-0.5-0.2-0.9-0.2c-0.5,0-0.9,0.1-1.3,0.2c-0.3,0.1-0.6,0.3-0.7,0.4c0.1,0.3,0.2,0.6,0.2,0.9
			s0.1,0.7,0.1,1.1v4.7h-1.5V75c0-0.5,0-0.9-0.1-1.3s-0.1-0.7-0.3-0.9c-0.1-0.2-0.3-0.4-0.6-0.5c-0.2-0.1-0.5-0.2-0.9-0.2
			c-0.2,0-0.3,0-0.5,0s-0.3,0-0.5,0s-0.3,0-0.4,0.1c-0.1,0-0.2,0-0.3,0v7.1h-1.5v-8.1H76.6z"/>
		<path class="st0" d="M93.2,70.6c0.6,0,1.1,0.1,1.5,0.2c0.4,0.2,0.8,0.4,1,0.7c0.3,0.3,0.4,0.6,0.5,1s0.2,0.8,0.2,1.3v5.3
			c-0.1,0-0.3,0.1-0.5,0.1s-0.5,0.1-0.8,0.1s-0.6,0.1-0.9,0.1s-0.7,0-1,0c-0.5,0-0.9,0-1.3-0.1s-0.7-0.3-1-0.5s-0.5-0.5-0.7-0.8
			S90,77.2,90,76.8c0-0.5,0.1-0.9,0.3-1.2c0.2-0.3,0.4-0.6,0.8-0.8c0.3-0.2,0.7-0.4,1.1-0.5s0.9-0.1,1.4-0.1c0.2,0,0.3,0,0.5,0
			s0.3,0,0.5,0.1c0.1,0,0.3,0.1,0.4,0.1s0.2,0,0.2,0v-0.5c0-0.2,0-0.5-0.1-0.7s-0.2-0.5-0.3-0.6c-0.1-0.2-0.3-0.3-0.6-0.5
			c-0.2-0.1-0.6-0.2-0.9-0.2c-0.5,0-0.9,0-1.3,0.1s-0.7,0.1-0.8,0.2L91,71c0.2-0.1,0.5-0.2,1-0.3C92.2,70.7,92.7,70.6,93.2,70.6z
			 M93.3,78.2c0.4,0,0.7,0,0.9,0c0.3,0,0.5,0,0.7-0.1v-2.5c-0.1-0.1-0.3-0.1-0.5-0.1s-0.5-0.1-0.9-0.1c-0.2,0-0.5,0-0.7,0
			c-0.3,0-0.5,0.1-0.7,0.2s-0.4,0.2-0.5,0.4c-0.1,0.2-0.2,0.4-0.2,0.7c0,0.5,0.2,0.9,0.5,1.1C92.2,78.1,92.7,78.2,93.3,78.2z"/>
		<path class="st0" d="M101.9,70.8c0.1,0,0.3,0,0.4,0c0.2,0,0.3,0,0.5,0.1c0.2,0,0.3,0.1,0.4,0.1s0.2,0.1,0.3,0.1l-0.3,1.3
			c-0.1,0-0.3-0.1-0.6-0.2c-0.3-0.1-0.6-0.1-1.1-0.1c-0.3,0-0.6,0-0.8,0.1c-0.3,0.1-0.5,0.1-0.5,0.1v7.1h-1.5v-8.1
			c0.4-0.1,0.8-0.3,1.3-0.4C100.7,70.9,101.3,70.8,101.9,70.8z"/>
		<path class="st0" d="M106.4,70.8h3.2v1.3h-3.2V76c0,0.4,0,0.8,0.1,1c0.1,0.3,0.2,0.5,0.3,0.6c0.1,0.2,0.3,0.3,0.5,0.3
			c0.2,0.1,0.4,0.1,0.7,0.1c0.5,0,0.8-0.1,1.1-0.2s0.5-0.2,0.6-0.2l0.3,1.2c-0.2,0.1-0.4,0.2-0.8,0.3c-0.4,0.1-0.8,0.2-1.3,0.2
			c-0.6,0-1-0.1-1.4-0.2s-0.7-0.4-0.9-0.7c-0.2-0.3-0.4-0.7-0.5-1.1s-0.1-0.9-0.1-1.5v-7.5l1.5-0.3L106.4,70.8L106.4,70.8z"/>
		<path class="st0" d="M122.1,73.7h1.6v5.2c-0.1,0-0.3,0.1-0.6,0.1c-0.2,0.1-0.5,0.1-0.8,0.2s-0.7,0.1-1,0.1c-0.4,0-0.8,0.1-1.2,0.1
			c-0.8,0-1.5-0.1-2.2-0.4c-0.6-0.3-1.2-0.6-1.7-1.1s-0.8-1.1-1.1-1.8c-0.3-0.7-0.4-1.6-0.4-2.5s0.1-1.8,0.4-2.5
			c0.3-0.7,0.7-1.3,1.2-1.8s1.1-0.9,1.7-1.1c0.7-0.3,1.4-0.4,2.1-0.4c0.5,0,1,0,1.4,0.1s0.7,0.1,1,0.2s0.5,0.2,0.7,0.3
			c0.2,0.1,0.3,0.2,0.4,0.2l-0.5,1.3c-0.3-0.2-0.7-0.4-1.2-0.5s-1-0.2-1.6-0.2s-1.1,0.1-1.6,0.3s-0.9,0.5-1.2,0.9s-0.6,0.9-0.8,1.4
			c-0.2,0.6-0.3,1.2-0.3,1.9c0,0.7,0.1,1.3,0.2,1.8c0.2,0.6,0.4,1,0.7,1.4s0.7,0.7,1.2,0.9c0.5,0.2,1,0.3,1.7,0.3
			c0.5,0,0.8,0,1.2-0.1c0.3,0,0.5-0.1,0.7-0.1L122.1,73.7L122.1,73.7z"/>
		<path class="st0" d="M129,70.8c0.1,0,0.3,0,0.4,0c0.2,0,0.3,0,0.5,0.1c0.2,0,0.3,0.1,0.4,0.1c0.1,0,0.2,0.1,0.3,0.1l-0.3,1.3
			c-0.1,0-0.3-0.1-0.6-0.2s-0.6-0.1-1.1-0.1c-0.3,0-0.6,0-0.8,0.1c-0.3,0.1-0.5,0.1-0.5,0.1v7.1h-1.5v-8.1c0.4-0.1,0.8-0.3,1.3-0.4
			C127.8,70.9,128.4,70.8,129,70.8z"/>
		<path class="st0" d="M139.5,75c0,0.7-0.1,1.3-0.3,1.8s-0.5,1-0.8,1.4c-0.4,0.4-0.8,0.7-1.3,0.9c-0.5,0.2-1,0.3-1.6,0.3
			s-1.1-0.1-1.6-0.3c-0.5-0.2-0.9-0.5-1.3-0.9c-0.4-0.4-0.6-0.9-0.8-1.4s-0.3-1.1-0.3-1.8c0-0.7,0.1-1.3,0.3-1.8s0.5-1,0.8-1.4
			c0.4-0.4,0.8-0.7,1.3-0.9c0.5-0.2,1-0.3,1.6-0.3s1.1,0.1,1.6,0.3c0.5,0.2,0.9,0.5,1.3,0.9c0.4,0.4,0.6,0.9,0.8,1.4
			C139.4,73.8,139.5,74.4,139.5,75z M137.9,75c0-1-0.2-1.7-0.6-2.3c-0.4-0.6-1-0.8-1.7-0.8s-1.3,0.3-1.7,0.8
			c-0.4,0.6-0.6,1.3-0.6,2.3s0.2,1.7,0.6,2.3c0.4,0.6,1,0.8,1.7,0.8s1.3-0.3,1.7-0.8C137.7,76.7,137.9,76,137.9,75z"/>
		<path class="st0" d="M148.2,79.4c-0.3-0.8-0.6-1.7-1-2.7c-0.3-1-0.7-2-0.9-3.1c-0.3,1.1-0.6,2.1-0.9,3.1c-0.3,1-0.7,1.9-1,2.7
			h-1.3c-0.5-1.1-1-2.4-1.5-3.8s-0.9-3-1.3-4.6h1.6c0.1,0.5,0.2,1.1,0.4,1.7s0.3,1.2,0.5,1.8c0.2,0.6,0.3,1.2,0.5,1.7
			c0.2,0.6,0.4,1,0.5,1.4c0.2-0.5,0.4-1,0.5-1.6c0.2-0.6,0.3-1.1,0.5-1.7s0.3-1.1,0.5-1.7c0.1-0.6,0.3-1.1,0.4-1.6h1.2
			c0.1,0.5,0.2,1,0.4,1.6c0.1,0.6,0.3,1.1,0.5,1.7s0.3,1.2,0.5,1.7c0.2,0.6,0.4,1.1,0.5,1.6c0.2-0.4,0.3-0.9,0.5-1.4
			c0.2-0.6,0.4-1.1,0.5-1.7c0.2-0.6,0.3-1.2,0.5-1.8c0.2-0.6,0.3-1.1,0.4-1.7h1.6c-0.4,1.7-0.9,3.2-1.3,4.6c-0.5,1.4-1,2.7-1.5,3.8
			H148.2z"/>
		<path class="st0" d="M155.3,70.8h3.2v1.3h-3.2V76c0,0.4,0,0.8,0.1,1c0.1,0.3,0.2,0.5,0.3,0.6c0.1,0.2,0.3,0.3,0.5,0.3
			c0.2,0.1,0.4,0.1,0.7,0.1c0.5,0,0.8-0.1,1.1-0.2s0.5-0.2,0.6-0.2l0.3,1.2c-0.2,0.1-0.4,0.2-0.8,0.3c-0.4,0.1-0.8,0.2-1.3,0.2
			c-0.6,0-1-0.1-1.4-0.2s-0.7-0.4-0.9-0.7c-0.2-0.3-0.4-0.7-0.5-1.1s-0.1-0.9-0.1-1.5v-7.5l1.5-0.3v2.8H155.3z"/>
		<path class="st0" d="M160.3,79.4V67.1l1.5-0.3v4.3c0.3-0.1,0.6-0.2,0.9-0.3c0.3-0.1,0.6-0.1,0.9-0.1c0.7,0,1.2,0.1,1.7,0.3
			c0.4,0.2,0.8,0.5,1.1,0.8s0.5,0.7,0.6,1.2s0.2,1,0.2,1.6v4.7h-1.5v-4.4c0-0.5,0-1-0.1-1.3c-0.1-0.4-0.2-0.7-0.3-0.9
			c-0.2-0.2-0.4-0.4-0.6-0.5c-0.3-0.1-0.6-0.2-1-0.2c-0.2,0-0.3,0-0.5,0s-0.3,0-0.5,0.1c-0.2,0-0.3,0.1-0.4,0.1
			c-0.1,0-0.2,0.1-0.3,0.1v7h-1.7V79.4z"/>
	</g>
	<path id="XMLID_517_" class="st0" d="M41.2,36.7c1.2-0.2,2.7-1,4.3-2V0L0.1,14.2v34c2.3,0.6,4.8,0.9,6.5-0.1
		c3.7-2.2,9.2-8.9,9.2-8.9s-2.9,7.2-1.8,9.9c1.2,2.8,8.1,3,8.1,3s-7.8,4.8-11.5,7.9c-3.8,3.2-6.4,15.1-6.4,15.1S2.4,67.5,0,65.9l0,0
		l0,0v16.4l45.4,8.5V51.4c-1,0.3-2,0.6-2.8,0.9c-3.9,1.7-8.2,13.6-8.2,13.6s-0.2-9.9-2-12.8c-1.7-2.7-10.2-1-10.2-1s7.8-5,10.2-9
		c2.3-3.8,1.4-9.9,1.4-9.9S37.6,37.4,41.2,36.7z M25.6,32c-2.8,0.5-9.8,7.3-9.8,7.3s4.4-6.9,4.1-9.3c-0.3-2.3-4.8-3.2-4.8-3.2
		s6-1.5,8.5-3.8s4.7-6.9,4.7-6.9s0.6,3.9,2.8,4.4c2.3,0.6,8.4-1.9,8.4-1.9s-4.8,4.6-6.7,7.1c-2,2.6,0.8,7.6,0.8,7.6
		S28.5,31.5,25.6,32z"/>
</g>
</svg>
