<?xml version="1.0" encoding="utf-8"?>
<!-- Generator: Adobe Illustrator 24.3.0, SVG Export Plug-In . SVG Version: 6.00 Build 0)  -->
<svg version="1.1" id="Layer_1" xmlns="http://www.w3.org/2000/svg" xmlns:xlink="http://www.w3.org/1999/xlink" x="0px" y="0px"
	 viewBox="0 0 301.1 68" style="enable-background:new 0 0 301.1 68;" xml:space="preserve">
<style type="text/css">
	.st0{fill:#FFFFFF;}
</style>
<path class="st0" d="M41.1,44.3V33.1h6.8v1.3h-5.3v3.3h4.7V39h-4.7v3.9h5.7v1.4L41.1,44.3z"/>
<path class="st0" d="M56.6,43.9c-0.3,0.1-0.8,0.2-1.4,0.3c-0.7,0.1-1.3,0.2-2,0.2c-0.6,0-1.1-0.1-1.6-0.3c-0.4-0.2-0.8-0.4-1.1-0.8
	c-0.3-0.4-0.5-0.8-0.6-1.2c-0.1-0.5-0.2-1-0.2-1.6v-4.7h1.6v4.4c-0.1,0.8,0.1,1.5,0.5,2.2c0.4,0.5,1,0.7,1.6,0.7h0.5h0.5l0.4-0.1
	c0.1,0,0.2,0,0.3,0v-7.2h1.5V43.9z"/>
<path class="st0" d="M62.2,35.7c0.1,0,0.3,0,0.4,0l0.5,0.1l0.4,0.1c0.1,0,0.2,0,0.3,0.1l-0.3,1.3l-0.5-0.1C62.7,37,62.4,37,62,37
	c-0.3,0-0.6,0-0.8,0.1l-0.5,0.1v7.1h-1.6v-8.1c0.4-0.2,0.9-0.3,1.3-0.4C61,35.7,61.6,35.7,62.2,35.7z"/>
<path class="st0" d="M72.7,39.9c0,0.6-0.1,1.2-0.3,1.8c-0.2,0.5-0.5,1-0.8,1.4c-0.3,0.4-0.8,0.7-1.2,0.9c-1,0.4-2.2,0.4-3.2,0
	c-0.5-0.2-0.9-0.5-1.2-0.9c-0.4-0.4-0.6-0.9-0.8-1.4c-0.4-1.2-0.4-2.5,0-3.6c0.2-0.5,0.5-1,0.8-1.4c0.3-0.4,0.8-0.7,1.2-0.9
	c1-0.4,2.2-0.4,3.2,0c0.5,0.2,0.9,0.5,1.2,0.9c0.4,0.4,0.6,0.9,0.8,1.4C72.6,38.6,72.7,39.3,72.7,39.9z M71.1,39.9
	c0-0.8-0.2-1.6-0.6-2.3c-0.4-0.5-1.1-0.9-1.7-0.8c-0.7,0-1.3,0.3-1.7,0.8c-0.9,1.4-0.9,3.1,0,4.5c0.4,0.6,1.1,0.9,1.7,0.8
	c0.7,0,1.3-0.3,1.7-0.8C70.9,41.5,71.1,40.7,71.1,39.9L71.1,39.9z"/>
<path class="st0" d="M82.2,40.1c0,0.6-0.1,1.2-0.2,1.8c-0.2,0.5-0.4,1-0.7,1.4c-0.3,0.4-0.7,0.7-1.2,0.9c-0.5,0.2-1.1,0.3-1.6,0.3
	c-0.4,0-0.9-0.1-1.3-0.2c-0.3-0.1-0.6-0.2-0.8-0.4v3.4h-1.5V36.1c0.4-0.1,0.8-0.2,1.3-0.3c0.6-0.1,1.2-0.2,1.8-0.2
	c0.6,0,1.2,0.1,1.8,0.3c0.5,0.2,1,0.5,1.3,0.9c0.4,0.4,0.7,0.9,0.8,1.4C82.1,38.8,82.2,39.5,82.2,40.1z M80.6,40.1
	c0.1-0.8-0.2-1.6-0.7-2.3c-0.5-0.5-1.2-0.8-1.9-0.8c-0.4,0-0.7,0-1.1,0.1c-0.2,0-0.4,0.1-0.6,0.1v5.3c0.2,0.2,0.5,0.3,0.8,0.4
	c0.4,0.1,0.7,0.2,1.1,0.2c0.4,0,0.8-0.1,1.1-0.2c0.3-0.2,0.6-0.4,0.8-0.7c0.2-0.3,0.3-0.6,0.4-1C80.5,40.9,80.6,40.5,80.6,40.1z"/>
<path class="st0" d="M83.7,39.9c0-0.7,0.1-1.4,0.3-2c0.2-0.5,0.5-1,0.9-1.4c0.3-0.4,0.8-0.6,1.2-0.8c0.5-0.2,0.9-0.3,1.4-0.3
	c1-0.1,1.9,0.3,2.6,1.1c0.7,0.9,1,2.1,0.9,3.2v0.2c0,0.1,0,0.2,0,0.3h-5.8c0,0.7,0.3,1.4,0.8,2c0.6,0.5,1.3,0.7,2.1,0.7
	c0.5,0,0.9,0,1.3-0.1c0.3-0.1,0.5-0.2,0.8-0.3l0.2,1.3c-0.3,0.1-0.7,0.2-1,0.3c-0.5,0.1-1,0.2-1.6,0.2c-0.7,0-1.3-0.1-1.9-0.3
	c-0.5-0.2-1-0.5-1.3-0.9c-0.4-0.4-0.6-0.9-0.8-1.4C83.8,41.1,83.7,40.5,83.7,39.9z M89.5,39.1c0-0.6-0.1-1.2-0.5-1.7
	c-0.4-0.4-0.9-0.7-1.4-0.7c-0.3,0-0.6,0.1-0.9,0.2c-0.3,0.1-0.5,0.3-0.7,0.5c-0.2,0.2-0.3,0.5-0.4,0.7c-0.1,0.3-0.2,0.6-0.2,0.9
	H89.5z"/>
<path class="st0" d="M95.9,35.5c0.5,0,1,0.1,1.5,0.2c0.4,0.1,0.7,0.4,1,0.7c0.3,0.3,0.4,0.6,0.5,1c0.1,0.4,0.2,0.9,0.2,1.3V44
	L98.6,44l-0.8,0.1c-0.3,0-0.6,0.1-1,0.1s-0.7,0-1,0c-0.4,0-0.9,0-1.3-0.1c-0.4-0.1-0.7-0.2-1-0.5c-0.3-0.2-0.5-0.5-0.7-0.8
	c-0.2-0.4-0.3-0.8-0.2-1.2c0-0.4,0.1-0.8,0.3-1.2c0.2-0.3,0.4-0.6,0.8-0.8c0.4-0.2,0.7-0.4,1.1-0.5c0.4-0.1,0.9-0.1,1.4-0.1
	c0.2,0,0.3,0,0.5,0L97,39l0.4,0.1l0.2,0.1v-0.3c0-0.2,0-0.5-0.1-0.7c-0.1-0.2-0.2-0.5-0.3-0.7c-0.1-0.2-0.3-0.4-0.6-0.4
	c-0.3-0.1-0.6-0.2-0.9-0.2c-0.4,0-0.9,0-1.3,0.1c-0.3,0-0.6,0.1-0.8,0.2l-0.2-1.2c0.3-0.1,0.7-0.2,1-0.2
	C94.9,35.5,95.4,35.5,95.9,35.5z M96,43h1c0.2,0,0.5,0,0.7-0.1v-2.5c-0.2-0.1-0.3-0.1-0.5-0.1c-0.3,0-0.6-0.1-0.9-0.1
	c-0.2,0-0.5,0-0.7,0c-0.2,0-0.5,0.1-0.7,0.2c-0.2,0.1-0.4,0.2-0.5,0.4c-0.1,0.2-0.2,0.5-0.2,0.7c0,0.4,0.2,0.9,0.5,1.1
	C95.1,42.9,95.5,43,96,43z"/>
<path class="st0" d="M101.5,36.1c0.4-0.1,0.8-0.2,1.4-0.3c0.7-0.1,1.3-0.2,2-0.1c0.6,0,1.1,0.1,1.7,0.3c0.4,0.2,0.8,0.4,1.1,0.8
	c0.3,0.4,0.5,0.8,0.6,1.2c0.1,0.5,0.2,1,0.2,1.6v4.7h-1.5v-4.4c0-0.4,0-0.9-0.1-1.3c-0.1-0.3-0.2-0.6-0.4-0.9
	c-0.2-0.2-0.4-0.4-0.6-0.5c-0.3-0.1-0.7-0.2-1-0.2h-0.5h-0.5l-0.4,0.1c-0.1,0-0.2,0-0.3,0v7.1h-1.5L101.5,36.1z"/>
<path class="st0" d="M120,39.6l0.7,0.8c0.3,0.3,0.5,0.7,0.8,1.2c0.3,0.4,0.6,0.9,0.8,1.3c0.3,0.4,0.5,0.9,0.7,1.3h-1.7
	c-0.2-0.4-0.4-0.8-0.7-1.2s-0.5-0.8-0.8-1.2s-0.5-0.7-0.8-1.1c-0.3-0.3-0.5-0.6-0.7-0.9h-0.4h-1.9v4.4h-1.6V33.2
	c0.5-0.1,1-0.2,1.5-0.2c0.6,0,1.1,0,1.5,0c1.3-0.1,2.5,0.2,3.6,0.9c0.8,0.6,1.3,1.6,1.2,2.7c0,0.7-0.2,1.4-0.6,1.9
	C121.3,39,120.7,39.4,120,39.6z M117.6,34.3c-0.7,0-1.2,0-1.5,0.1v4.2h1.1c0.5,0,1,0,1.5-0.1c0.4,0,0.7-0.1,1.1-0.3
	c0.3-0.1,0.5-0.4,0.7-0.6c0.2-0.3,0.3-0.7,0.2-1.1c0-0.4-0.1-0.7-0.2-1.1c-0.2-0.3-0.4-0.5-0.7-0.7c-0.3-0.2-0.6-0.3-1-0.3
	C118.4,34.3,118,34.3,117.6,34.3L117.6,34.3z"/>
<path class="st0" d="M124.1,39.9c0-0.7,0.1-1.4,0.3-2c0.2-0.5,0.5-1,0.9-1.4c0.4-0.4,0.8-0.6,1.2-0.8c0.5-0.2,0.9-0.3,1.4-0.3
	c1-0.1,1.9,0.3,2.6,1.1c0.7,0.9,1,2.1,0.9,3.2v0.2c0,0.1,0,0.2,0,0.3h-5.8c0,0.7,0.3,1.4,0.8,2c0.6,0.5,1.3,0.7,2.1,0.7
	c0.4,0,0.9,0,1.3-0.1c0.3-0.1,0.6-0.2,0.8-0.3l0.2,1.3c-0.3,0.1-0.7,0.2-1,0.3c-0.5,0.1-1,0.2-1.6,0.2c-0.7,0-1.3-0.1-1.9-0.3
	c-0.5-0.2-1-0.5-1.3-0.9c-0.4-0.4-0.6-0.9-0.8-1.4C124.1,41.1,124.1,40.5,124.1,39.9z M129.9,39.1c0-0.6-0.1-1.2-0.5-1.7
	c-0.4-0.4-0.9-0.7-1.4-0.7c-0.3,0-0.6,0.1-0.9,0.2c-0.3,0.1-0.5,0.3-0.7,0.5c-0.2,0.2-0.3,0.5-0.4,0.7c-0.1,0.3-0.2,0.6-0.2,0.9
	H129.9z"/>
<path class="st0" d="M138.8,43.4c-0.6,0.4-1.3,0.5-2.1,0.5c-0.5,0-1-0.1-1.4-0.2c-0.4-0.2-0.8-0.4-1.2-0.8c-0.3-0.4-0.6-0.8-0.8-1.3
	c-0.2-0.6-0.3-1.2-0.3-1.8c0-0.6,0.1-1.2,0.3-1.7c0.2-0.5,0.4-0.9,0.8-1.3c0.4-0.4,0.8-0.7,1.3-0.9c0.5-0.2,1.1-0.3,1.7-0.3
	c0.6,0,1.2,0,1.8,0.2c0.5,0.1,1,0.2,1.3,0.3v7.5c0.1,1-0.3,2.1-1,2.8c-0.9,0.6-1.9,0.9-3,0.9c-0.5,0-1,0-1.5-0.1
	c-0.4-0.1-0.8-0.2-1.2-0.3l0.3-1.3c0.4,0.1,0.7,0.2,1.1,0.3c0.5,0.1,0.9,0.1,1.4,0.1c0.7,0.1,1.4-0.1,1.9-0.5
	c0.4-0.5,0.6-1.1,0.6-1.7L138.8,43.4z M138.8,37.2c-0.2-0.1-0.4-0.1-0.6-0.1c-0.3,0-0.7-0.1-1-0.1c-0.7,0-1.4,0.3-1.9,0.8
	c-0.5,0.6-0.7,1.3-0.6,2.1c0,0.4,0.1,0.8,0.2,1.2c0.1,0.3,0.3,0.6,0.5,0.9c0.2,0.2,0.4,0.4,0.7,0.5c0.3,0.1,0.6,0.2,0.9,0.2
	c0.4,0,0.7-0.1,1.1-0.2c0.3-0.1,0.6-0.2,0.8-0.4L138.8,37.2z"/>
<path class="st0" d="M143.5,34.3c-0.5,0-1-0.4-1-0.9c0,0,0-0.1,0-0.1c0-0.3,0.1-0.5,0.3-0.7c0.4-0.4,1-0.4,1.4,0
	c0.2,0.2,0.3,0.5,0.3,0.7c0,0.3-0.1,0.5-0.3,0.7C144,34.2,143.8,34.3,143.5,34.3z M144.3,44.3h-1.5v-8.5h1.5V44.3z"/>
<path class="st0" d="M154.2,39.9c0,0.6-0.1,1.2-0.3,1.8c-0.2,0.5-0.5,1-0.8,1.4c-0.3,0.4-0.8,0.7-1.2,0.9c-1,0.4-2.2,0.4-3.2,0
	c-0.5-0.2-0.9-0.5-1.2-0.9c-0.4-0.4-0.6-0.9-0.8-1.4c-0.4-1.2-0.4-2.5,0-3.6c0.2-0.5,0.5-1,0.8-1.4c0.3-0.4,0.8-0.7,1.2-0.9
	c1-0.4,2.2-0.4,3.2,0c0.5,0.2,0.9,0.5,1.2,0.9c0.4,0.4,0.6,0.9,0.8,1.4C154.1,38.6,154.2,39.3,154.2,39.9z M152.7,39.9
	c0-0.8-0.2-1.6-0.6-2.3c-0.4-0.5-1.1-0.9-1.7-0.8c-0.7,0-1.3,0.3-1.7,0.8c-0.9,1.4-0.9,3.1,0,4.5c0.4,0.6,1.1,0.9,1.7,0.8
	c0.7,0,1.3-0.3,1.7-0.8C152.5,41.5,152.7,40.7,152.7,39.9z"/>
<path class="st0" d="M156.3,36.1c0.4-0.1,0.8-0.2,1.4-0.3c0.7-0.1,1.3-0.2,2-0.1c0.6,0,1.1,0.1,1.7,0.3c0.4,0.2,0.8,0.4,1.1,0.8
	c0.3,0.4,0.5,0.8,0.6,1.2c0.1,0.5,0.2,1,0.2,1.6v4.7h-1.5v-4.4c0-0.4,0-0.9-0.1-1.3c-0.1-0.3-0.2-0.6-0.3-0.9
	c-0.2-0.2-0.4-0.4-0.6-0.5c-0.3-0.1-0.7-0.2-1-0.2H159h-0.5l-0.4,0.1c-0.1,0-0.2,0-0.3,0v7.1h-1.5V36.1z"/>
<path class="st0" d="M168.2,35.5c0.5,0,1,0.1,1.5,0.2c0.4,0.1,0.7,0.4,1,0.7c0.3,0.3,0.4,0.6,0.5,1c0.1,0.4,0.2,0.9,0.2,1.3V44
	l-0.5,0.1c-0.2,0-0.5,0.1-0.8,0.1s-0.6,0.1-0.9,0.1s-0.7,0-1,0c-0.4,0-0.9,0-1.3-0.1c-0.4-0.1-0.7-0.2-1-0.5
	c-0.3-0.2-0.5-0.5-0.7-0.8c-0.2-0.4-0.3-0.8-0.2-1.2c0-0.4,0.1-0.8,0.3-1.2c0.2-0.3,0.4-0.6,0.8-0.8c0.3-0.2,0.7-0.3,1.1-0.3
	c0.4-0.1,0.9-0.1,1.4-0.1c0.2,0,0.3,0,0.5,0l0.5,0.1l0.4,0.1l0.2,0v-0.4c0-0.2,0-0.5-0.1-0.7c-0.1-0.2-0.2-0.5-0.3-0.7
	c-0.1-0.2-0.3-0.4-0.6-0.4c-0.3-0.1-0.7-0.2-1-0.2c-0.4,0-0.9,0-1.3,0.1c-0.3,0.1-0.6,0.1-0.8,0.2l-0.2-1.2c0.3-0.1,0.7-0.2,1-0.2
	C167.2,35.5,167.7,35.5,168.2,35.5z M168.4,43h0.9c0.2,0,0.5,0,0.7-0.1v-2.5c-0.2-0.1-0.3-0.1-0.5-0.1c-0.3,0-0.6-0.1-0.9-0.1
	c-0.2,0-0.5,0-0.7,0c-0.2,0-0.5,0.1-0.7,0.2c-0.2,0.1-0.4,0.2-0.5,0.4c-0.1,0.2-0.2,0.5-0.2,0.7c0,0.4,0.2,0.9,0.5,1.1
	C167.4,42.9,167.9,43,168.4,43z"/>
<path class="st0" d="M176.4,44.3c-0.7,0.1-1.4-0.2-2-0.6c-0.4-0.5-0.6-1.1-0.6-1.8V31.8l1.5-0.3v10.1c0,0.2,0,0.4,0.1,0.6
	c0,0.1,0.1,0.3,0.2,0.4c0.1,0.1,0.2,0.2,0.4,0.2c0.2,0.1,0.4,0.1,0.6,0.1L176.4,44.3z"/>
<path class="st0" d="M48.8,58.4c0,0.9-0.1,1.7-0.5,2.5c-0.3,0.7-0.7,1.3-1.3,1.8c-0.6,0.5-1.3,0.8-2,1c-0.8,0.2-1.7,0.4-2.5,0.3
	c-0.5,0-1,0-1.5-0.1c-0.5,0-1-0.1-1.5-0.2V53c0.5-0.1,1-0.2,1.5-0.2c0.5,0,1-0.1,1.5-0.1c0.9,0,1.7,0.1,2.5,0.3
	c0.7,0.2,1.4,0.6,2,1.1c0.6,0.5,1,1.1,1.3,1.8C48.6,56.7,48.8,57.5,48.8,58.4z M42.6,62.8c2.4,0.2,4.5-1.5,4.8-3.9s-1.5-4.5-3.9-4.8
	c-0.3,0-0.6,0-0.8,0h-1c-0.2,0-0.3,0-0.5,0v8.6h0.5C41.9,62.8,42.2,62.8,42.6,62.8z"/>
<path class="st0" d="M50.4,59.7c0-0.7,0.1-1.4,0.3-2c0.2-0.5,0.5-1,0.9-1.4c0.3-0.4,0.8-0.6,1.2-0.8c0.5-0.2,0.9-0.3,1.4-0.3
	c1-0.1,1.9,0.3,2.6,1.1c0.7,0.9,1,2.1,0.9,3.2v0.2c0,0.1,0,0.2,0,0.3H52c0,0.7,0.3,1.4,0.8,2c0.6,0.5,1.3,0.7,2.1,0.7
	c0.5,0,0.9,0,1.3-0.1c0.3-0.1,0.5-0.2,0.8-0.3l0.2,1.3c-0.3,0.1-0.7,0.2-1,0.3c-0.5,0.1-1,0.2-1.6,0.2c-0.7,0-1.3-0.1-1.9-0.3
	c-0.5-0.2-1-0.5-1.3-0.9c-0.3-0.4-0.6-0.9-0.8-1.4C50.5,60.9,50.4,60.3,50.4,59.7z M56.2,58.9c0-0.6-0.1-1.2-0.5-1.7
	c-0.4-0.4-0.9-0.7-1.4-0.7c-0.3,0-0.6,0.1-0.9,0.2c-0.3,0.1-0.5,0.3-0.7,0.5c-0.2,0.2-0.3,0.5-0.4,0.7c-0.1,0.3-0.2,0.6-0.2,0.9
	L56.2,58.9z"/>
<path class="st0" d="M66.5,55.7c-0.4,1.5-0.9,3.1-1.5,4.5c-0.6,1.4-1.1,2.7-1.6,3.9H62c-0.5-1.2-1.1-2.4-1.7-3.9
	c-0.6-1.5-1.1-3-1.5-4.5h1.6c0.1,0.5,0.3,1.1,0.5,1.7s0.4,1.2,0.6,1.8s0.4,1.2,0.6,1.7s0.4,1,0.6,1.5c0.2-0.4,0.4-0.9,0.6-1.5
	s0.4-1.1,0.6-1.7s0.4-1.2,0.6-1.8s0.3-1.2,0.5-1.7H66.5z"/>
<path class="st0" d="M67.2,59.7c0-0.7,0.1-1.4,0.3-2c0.2-0.5,0.5-1,0.9-1.4c0.3-0.4,0.8-0.6,1.2-0.8c0.5-0.2,0.9-0.3,1.4-0.3
	c1-0.1,1.9,0.3,2.6,1.1c0.7,0.9,1,2.1,0.9,3.2v0.2c0,0.1,0,0.2,0,0.3h-5.8c0,0.7,0.3,1.4,0.8,2c0.6,0.5,1.3,0.7,2.1,0.7
	c0.5,0,0.9,0,1.3-0.1c0.3-0.1,0.5-0.2,0.8-0.3l0.2,1.3c-0.3,0.1-0.7,0.2-1,0.3c-0.5,0.1-1,0.2-1.6,0.2c-0.7,0-1.3-0.1-1.9-0.3
	c-0.5-0.2-1-0.5-1.3-0.9c-0.3-0.4-0.6-0.9-0.8-1.4C67.3,60.9,67.2,60.3,67.2,59.7z M73,58.9c0-0.6-0.1-1.2-0.5-1.7
	c-0.4-0.4-0.9-0.7-1.4-0.7c-0.3,0-0.6,0.1-0.9,0.2C69.6,57,69.2,57.5,69,58c-0.1,0.3-0.2,0.6-0.2,0.9L73,58.9z"/>
<path class="st0" d="M79.2,64.1c-0.7,0.1-1.4-0.2-2-0.6c-0.4-0.5-0.6-1.1-0.6-1.8V51.7l1.5-0.3v10.1c0,0.2,0,0.4,0.1,0.6
	c0,0.1,0.1,0.3,0.2,0.4c0.1,0.1,0.2,0.2,0.4,0.2c0.2,0.1,0.4,0.1,0.6,0.1L79.2,64.1z"/>
<path class="st0" d="M88.5,59.7c0,0.6-0.1,1.2-0.3,1.8c-0.2,0.5-0.5,1-0.8,1.4c-0.3,0.4-0.8,0.7-1.2,0.9c-1,0.4-2.2,0.4-3.2,0
	c-0.5-0.2-0.9-0.5-1.2-0.9c-0.4-0.4-0.6-0.9-0.8-1.4c-0.4-1.2-0.4-2.5,0-3.6c0.2-0.5,0.5-1,0.8-1.4c0.3-0.4,0.8-0.7,1.2-0.9
	c1-0.4,2.2-0.4,3.2,0c0.5,0.2,0.9,0.5,1.2,0.9c0.4,0.4,0.6,0.9,0.8,1.4C88.4,58.5,88.5,59.1,88.5,59.7z M86.9,59.7
	c0-0.8-0.2-1.6-0.6-2.3c-0.4-0.6-1.1-0.9-1.7-0.8c-0.7,0-1.3,0.3-1.7,0.8c-0.9,1.4-0.9,3.1,0,4.5c0.4,0.5,1.1,0.9,1.7,0.8
	c0.7,0,1.3-0.3,1.7-0.8C86.7,61.3,86.9,60.5,86.9,59.7z"/>
<path class="st0" d="M97.9,59.9c0,0.6-0.1,1.2-0.3,1.8c-0.1,0.5-0.4,1-0.7,1.4c-0.3,0.4-0.7,0.7-1.2,0.9c-0.5,0.2-1.1,0.3-1.6,0.3
	c-0.4,0-0.9-0.1-1.3-0.2c-0.3-0.1-0.6-0.2-0.8-0.4v3.4h-1.5V56c0.3-0.1,0.8-0.2,1.3-0.3c0.6-0.1,1.2-0.2,1.9-0.2
	c0.6,0,1.2,0.1,1.8,0.3c0.5,0.2,0.9,0.5,1.3,0.9c0.4,0.4,0.7,0.9,0.9,1.4C97.8,58.7,97.9,59.3,97.9,59.9z M96.3,59.9
	c0.1-0.8-0.2-1.6-0.7-2.3c-0.5-0.5-1.2-0.8-1.9-0.8c-0.4,0-0.7,0-1.1,0c-0.2,0-0.4,0.1-0.6,0.1v5.3c0.2,0.2,0.5,0.3,0.8,0.4
	c0.4,0.1,0.7,0.2,1.1,0.2c0.4,0,0.8-0.1,1.1-0.2c0.3-0.2,0.6-0.4,0.8-0.7c0.2-0.3,0.4-0.6,0.4-1C96.3,60.7,96.3,60.3,96.3,59.9z"/>
<path class="st0" d="M100,56c0.3-0.1,0.8-0.2,1.4-0.3c0.7-0.1,1.3-0.2,2-0.1c0.5,0,0.9,0.1,1.4,0.2c0.4,0.1,0.7,0.4,0.9,0.6
	c0.1-0.1,0.2-0.2,0.4-0.2c0.2-0.1,0.4-0.2,0.6-0.3c0.3-0.1,0.5-0.2,0.8-0.2c0.3-0.1,0.6-0.1,0.9-0.1c0.5,0,1.1,0.1,1.6,0.3
	c0.4,0.2,0.7,0.4,1,0.8c0.2,0.4,0.4,0.8,0.5,1.2c0.1,0.5,0.1,1,0.1,1.6v4.7H110v-4.4c0-0.4,0-0.9-0.1-1.3c0-0.3-0.1-0.6-0.3-0.9
	c-0.1-0.2-0.3-0.4-0.6-0.5c-0.3-0.1-0.6-0.2-0.9-0.2c-0.4,0-0.9,0.1-1.2,0.2c-0.2,0.1-0.5,0.2-0.7,0.4c0.1,0.3,0.2,0.6,0.2,0.9
	c0,0.4,0.1,0.7,0.1,1.1v4.7H105v-4.4c0-0.4,0-0.9-0.1-1.3c0-0.3-0.1-0.6-0.3-0.9c-0.1-0.2-0.3-0.4-0.6-0.5c-0.3-0.1-0.6-0.2-0.9-0.2
	h-0.5h-0.5l-0.4,0.1c-0.1,0-0.2,0-0.3,0V64H100L100,56z"/>
<path class="st0" d="M113.4,59.7c0-0.7,0.1-1.4,0.3-2c0.2-0.5,0.5-1,0.9-1.4c0.3-0.4,0.8-0.6,1.2-0.8c0.5-0.2,0.9-0.3,1.4-0.3
	c1-0.1,1.9,0.3,2.6,1.1c0.7,0.9,1,2.1,0.9,3.2v0.2c0,0.1,0,0.2,0,0.3h-5.8c0,0.7,0.3,1.4,0.8,2c0.6,0.5,1.3,0.7,2.1,0.7
	c0.5,0,0.9,0,1.3-0.1c0.3-0.1,0.5-0.2,0.8-0.3l0.2,1.3c-0.3,0.1-0.7,0.2-1,0.3c-0.5,0.1-1,0.2-1.6,0.2c-0.7,0-1.3-0.1-1.9-0.3
	c-0.5-0.2-1-0.5-1.3-0.9c-0.3-0.4-0.6-0.9-0.8-1.4C113.4,60.9,113.3,60.3,113.4,59.7z M119.1,58.9c0-0.6-0.1-1.2-0.5-1.7
	c-0.4-0.4-0.9-0.7-1.4-0.7c-0.3,0-0.6,0.1-0.9,0.2c-0.3,0.1-0.5,0.3-0.7,0.5c-0.2,0.2-0.3,0.5-0.4,0.7c-0.1,0.3-0.2,0.6-0.2,0.9
	L119.1,58.9z"/>
<path class="st0" d="M122.8,56c0.3-0.1,0.8-0.2,1.4-0.3c0.7-0.1,1.3-0.2,2-0.1c0.6,0,1.1,0.1,1.7,0.3c0.4,0.2,0.8,0.4,1.1,0.8
	c0.3,0.4,0.5,0.8,0.6,1.2c0.1,0.5,0.2,1,0.2,1.6v4.7h-1.5v-4.4c0-0.4,0-0.9-0.1-1.3c-0.1-0.3-0.2-0.6-0.4-0.9
	c-0.2-0.2-0.4-0.4-0.6-0.5c-0.3-0.1-0.7-0.2-1-0.2h-0.5H125l-0.4,0.1h-0.3V64h-1.5L122.8,56z"/>
<path class="st0" d="M133.4,55.5h3.2v1.3h-3.2v3.9c0,0.3,0,0.7,0.1,1c0,0.2,0.1,0.5,0.3,0.6c0.1,0.2,0.3,0.3,0.5,0.3
	c0.2,0.1,0.5,0.1,0.7,0.1c0.4,0,0.7,0,1.1-0.2l0.6-0.2l0.3,1.2c-0.3,0.1-0.5,0.2-0.8,0.3c-0.4,0.1-0.9,0.2-1.3,0.2
	c-0.5,0-1-0.1-1.4-0.2c-0.4-0.1-0.7-0.4-0.9-0.7c-0.2-0.3-0.4-0.6-0.4-1c-0.1-0.5-0.1-1-0.1-1.5v-7.5l1.5-0.3L133.4,55.5z"/>
<path class="st0" d="M142.2,64.1V52.9h6.8v1.3h-5.2v3.4h4.6V59h-4.6v5.2L142.2,64.1z"/>
<path class="st0" d="M157.1,63.7c-0.4,0.1-0.8,0.2-1.4,0.3c-0.7,0.1-1.3,0.2-2,0.2c-0.6,0-1.1-0.1-1.6-0.3c-0.4-0.2-0.8-0.4-1.1-0.8
	c-0.3-0.4-0.5-0.8-0.6-1.2c-0.1-0.5-0.2-1-0.2-1.6v-4.7h1.5v4.4c-0.1,0.8,0.1,1.5,0.5,2.2c0.4,0.5,1,0.7,1.6,0.7h0.5h0.5h0.4
	c0.1,0,0.2,0,0.3,0v-7.3h1.5V63.7z"/>
<path class="st0" d="M159.5,56c0.3-0.1,0.8-0.2,1.4-0.3c0.7-0.1,1.3-0.2,2-0.1c0.6,0,1.1,0.1,1.7,0.3c0.4,0.2,0.8,0.4,1.1,0.8
	c0.3,0.4,0.5,0.8,0.6,1.2c0.1,0.5,0.2,1,0.2,1.6v4.7h-1.5v-4.4c0-0.4,0-0.9-0.1-1.3c-0.1-0.3-0.2-0.6-0.4-0.9
	c-0.2-0.2-0.4-0.4-0.6-0.5c-0.3-0.1-0.7-0.2-1-0.2h-0.5h-0.5l-0.4,0.1c-0.1,0-0.2,0-0.3,0V64h-1.5L159.5,56z"/>
<path class="st0" d="M174.2,51.6l1.5-0.3v12.3c-0.4,0.1-0.8,0.2-1.3,0.3c-0.6,0.1-1.2,0.2-1.9,0.2c-0.6,0-1.2-0.1-1.8-0.3
	c-0.5-0.2-0.9-0.5-1.3-0.9c-0.4-0.4-0.7-0.9-0.9-1.4c-0.2-0.6-0.3-1.2-0.3-1.8c0-0.6,0.1-1.2,0.2-1.8c0.1-0.5,0.4-1,0.7-1.4
	c0.3-0.4,0.7-0.7,1.2-0.9c0.5-0.2,1.1-0.3,1.6-0.3c0.7,0,1.5,0.2,2.1,0.6L174.2,51.6z M174.2,57.3c-0.2-0.2-0.5-0.3-0.8-0.4
	c-0.4-0.1-0.7-0.2-1.1-0.2c-0.4,0-0.8,0.1-1.1,0.2c-0.3,0.1-0.6,0.4-0.8,0.7c-0.2,0.3-0.4,0.6-0.4,1c-0.1,0.4-0.1,0.8-0.1,1.2
	c-0.1,0.8,0.2,1.6,0.7,2.3c0.5,0.5,1.2,0.8,1.9,0.8c0.3,0,0.7,0,1-0.1c0.2,0,0.4-0.1,0.6-0.1L174.2,57.3z"/>
<path class="st0" d="M0,21.6v-17h10.9v2.6H3.1v4.2h7V14h-7v5h8.4v2.6L0,21.6z"/>
<path class="st0" d="M24.2,20.9c-0.6,0.2-1.3,0.3-2.2,0.5c-1,0.2-2,0.2-3,0.2c-0.9,0-1.8-0.1-2.6-0.4c-0.6-0.3-1.2-0.7-1.7-1.2
	c-0.4-0.6-0.7-1.2-0.9-1.9c-0.2-0.8-0.3-1.6-0.3-2.4V8.5h3v6.7c-0.1,1,0.1,2.1,0.6,3c0.5,0.6,1.3,1,2.1,0.9c0.4,0,0.8,0,1.1,0
	c0.3,0,0.6-0.1,0.9-0.1V8.5h3L24.2,20.9z"/>
<path class="st0" d="M35.2,11.4c-0.2-0.1-0.6-0.2-1-0.2c-0.5-0.1-1-0.1-1.5-0.1c-0.6,0-1.2,0.1-1.8,0.3v10.3h-3V9.4
	c0.7-0.2,1.4-0.4,2.2-0.6c0.9-0.2,1.9-0.3,2.9-0.3h0.7l0.8,0.1c0.3,0,0.5,0.1,0.8,0.1l0.6,0.2L35.2,11.4z"/>
<path class="st0" d="M49.2,14.9c0,0.9-0.1,1.9-0.4,2.8c-0.3,0.8-0.7,1.5-1.3,2.1c-0.6,0.6-1.2,1.1-2,1.4c-0.8,0.3-1.6,0.5-2.5,0.5
	c-0.8,0-1.7-0.1-2.5-0.4c-0.7-0.3-1.4-0.8-1.9-1.4c-0.6-0.6-1-1.4-1.3-2.1c-0.3-0.9-0.5-1.8-0.5-2.8c0-0.9,0.1-1.9,0.5-2.8
	c0.3-0.8,0.7-1.5,1.3-2.1c0.6-0.6,1.2-1.1,2-1.4c0.8-0.3,1.6-0.5,2.5-0.5c0.9,0,1.7,0.2,2.5,0.5c0.8,0.3,1.4,0.8,2,1.4
	c0.6,0.6,1,1.3,1.3,2.1C49.1,13,49.2,13.9,49.2,14.9z M46.2,14.9c0.1-1.1-0.2-2.1-0.8-3c-1-1.3-2.8-1.5-4.1-0.5
	c-0.2,0.1-0.3,0.3-0.5,0.5c-0.6,0.9-0.9,1.9-0.8,3c-0.1,1.1,0.2,2.2,0.8,3.1c1,1.3,2.8,1.5,4.1,0.5c0.2-0.2,0.4-0.3,0.5-0.5
	C45.9,17,46.2,15.9,46.2,14.9z"/>
<path class="st0" d="M63.7,15.2c0,0.9-0.1,1.8-0.4,2.7c-0.2,0.8-0.6,1.5-1.1,2.1c-0.5,0.6-1.1,1.1-1.8,1.4c-0.8,0.3-1.6,0.5-2.4,0.5
	c-0.6,0-1.1-0.1-1.7-0.2c-0.4-0.1-0.9-0.3-1.3-0.5v5h-3v-17c0.6-0.2,1.3-0.3,2.2-0.5c0.9-0.2,1.9-0.2,2.8-0.2C58,8.5,59,8.6,59.8,9
	c0.8,0.3,1.4,0.8,2,1.3c0.6,0.6,1,1.3,1.3,2.1C63.5,13.3,63.7,14.2,63.7,15.2z M60.7,15.2c0.1-1.1-0.2-2.2-0.9-3.1
	C59,11.4,58,10.9,56.9,11c-0.3,0-0.6,0-0.9,0c-0.3,0-0.6,0.1-0.9,0.2v7.4c0.3,0.2,0.6,0.4,1,0.5c0.4,0.2,0.9,0.2,1.4,0.2
	c0.9,0.1,1.8-0.4,2.4-1.1C60.4,17.3,60.7,16.3,60.7,15.2L60.7,15.2z"/>
<path class="st0" d="M65.9,14.9c0-1,0.1-2,0.5-3c0.3-0.8,0.8-1.5,1.3-2.1c0.5-0.6,1.2-1,1.9-1.3c0.7-0.3,1.5-0.4,2.2-0.4
	C73.4,8,74.9,8.6,76,9.8c1.1,1.4,1.6,3.1,1.5,4.9c0,0.2,0,0.3,0,0.5s0,0.4,0,0.5H69c0,0.9,0.4,1.8,1.1,2.4c0.8,0.6,1.8,0.9,2.8,0.8
	c0.7,0,1.3-0.1,2-0.2c0.5-0.1,1-0.2,1.4-0.4l0.4,2.4C76.5,21,76.2,21,76,21.1c-0.3,0.1-0.7,0.2-1,0.2c-0.4,0.1-0.8,0.1-1.2,0.2
	c-0.4,0-0.9,0.1-1.3,0.1c-1,0-2-0.1-2.9-0.5c-0.8-0.3-1.5-0.8-2.1-1.4c-0.5-0.6-1-1.3-1.2-2.1C66,16.7,65.9,15.8,65.9,14.9z
	 M74.5,13.6c0-0.4-0.1-0.8-0.2-1.2c-0.1-0.4-0.3-0.7-0.5-1c-0.2-0.3-0.5-0.5-0.8-0.6c-0.4-0.2-0.7-0.3-1.1-0.2
	c-0.4,0-0.8,0.1-1.2,0.3c-0.3,0.2-0.6,0.4-0.9,0.7c-0.2,0.3-0.4,0.6-0.6,1c-0.1,0.4-0.2,0.7-0.3,1.1L74.5,13.6z"/>
<path class="st0" d="M84.7,8.2c0.8,0,1.7,0.1,2.5,0.4c0.6,0.2,1.2,0.5,1.6,1c0.4,0.5,0.7,1,0.9,1.6c0.2,0.7,0.3,1.4,0.3,2.1V21
	c-0.5,0.1-1.2,0.2-2.1,0.3c-1,0.1-2.1,0.2-3.1,0.2c-0.7,0-1.4-0.1-2.1-0.2C82,21.2,81.5,21,81,20.7c-0.5-0.3-0.8-0.8-1.1-1.3
	c-0.3-0.6-0.4-1.3-0.4-1.9c0-0.6,0.1-1.3,0.4-1.9c0.3-0.5,0.7-0.9,1.2-1.2c0.5-0.3,1.1-0.6,1.7-0.7c0.7-0.1,1.3-0.2,2-0.2
	c0.7,0,1.5,0.1,2.2,0.3v-0.5c0-0.3,0-0.7-0.1-1c-0.1-0.3-0.2-0.6-0.4-0.8c-0.2-0.3-0.5-0.4-0.8-0.6c-0.4-0.1-0.8-0.2-1.3-0.2
	c-0.6,0-1.3,0-1.9,0.1c-0.5,0.1-0.9,0.2-1.4,0.4l-0.4-2.4c0.5-0.2,1.1-0.3,1.7-0.4C83.2,8.2,84,8.2,84.7,8.2z M85,19.3
	c0.7,0,1.4,0,2.1-0.1v-3.3c-0.2-0.1-0.5-0.1-0.7-0.2c-0.3,0-0.7-0.1-1-0.1c-0.3,0-0.7,0-1,0.1c-0.3,0-0.6,0.1-0.9,0.3
	c-0.3,0.1-0.5,0.3-0.7,0.5c-0.2,0.3-0.3,0.6-0.2,0.9c-0.1,0.6,0.2,1.1,0.7,1.5C83.8,19.2,84.4,19.3,85,19.3L85,19.3z"/>
<path class="st0" d="M93.4,9.2c0.7-0.2,1.5-0.3,2.2-0.5c1-0.2,2-0.2,3-0.2c0.9,0,1.8,0.1,2.6,0.4c0.7,0.2,1.2,0.7,1.7,1.2
	c0.4,0.5,0.7,1.2,0.9,1.9c0.2,0.8,0.3,1.6,0.3,2.4v7.2h-3v-6.8c0-0.6,0-1.2-0.1-1.8c-0.1-0.4-0.2-0.8-0.4-1.2
	c-0.2-0.3-0.5-0.5-0.8-0.7c-0.4-0.2-0.9-0.2-1.3-0.2c-0.4,0-0.8,0-1.2,0.1s-0.7,0.1-0.9,0.1v10.4h-3L93.4,9.2z"/>
<path class="st0" d="M119.9,21.6c-1,0-2-0.1-3-0.5c-1.6-0.6-2.8-1.9-3.3-3.5c-0.3-0.9-0.4-1.8-0.4-2.7V4.2h3.1v10.3
	c0,0.7,0.1,1.4,0.3,2c0.1,0.5,0.4,1,0.7,1.3c0.3,0.3,0.7,0.6,1.1,0.8c0.5,0.2,1,0.3,1.5,0.2c0.5,0,1-0.1,1.5-0.2
	c0.4-0.2,0.8-0.4,1.1-0.8c0.3-0.4,0.6-0.8,0.7-1.3c0.2-0.6,0.3-1.3,0.3-2V4.2h3.1v10.6c0,0.9-0.1,1.8-0.4,2.7
	c-0.2,0.8-0.6,1.5-1.2,2.1c-0.6,0.6-1.3,1.1-2.1,1.4C122,21.5,121,21.7,119.9,21.6z"/>
<path class="st0" d="M130.3,9.2c0.7-0.2,1.5-0.3,2.2-0.5c1-0.2,2-0.2,3.1-0.2c0.9,0,1.8,0.1,2.6,0.4c0.7,0.2,1.2,0.7,1.7,1.2
	c0.4,0.5,0.7,1.2,0.9,1.9c0.2,0.8,0.3,1.6,0.3,2.4v7.2h-3v-6.8c0-0.6,0-1.2-0.1-1.8c-0.1-0.4-0.2-0.8-0.4-1.2
	c-0.2-0.3-0.5-0.5-0.8-0.7c-0.4-0.2-0.9-0.2-1.3-0.2c-0.4,0-0.8,0-1.2,0.1s-0.7,0.1-0.9,0.1v10.4h-3L130.3,9.2z"/>
<path class="st0" d="M147.9,5c0,0.5-0.2,1-0.5,1.3c-0.3,0.3-0.8,0.5-1.3,0.5c-0.5,0-0.9-0.2-1.3-0.5c-0.4-0.3-0.6-0.8-0.5-1.3
	c0-0.5,0.2-1,0.5-1.4c0.4-0.3,0.8-0.5,1.3-0.5c0.5,0,0.9,0.2,1.3,0.5C147.7,4,147.9,4.5,147.9,5z M147.5,21.6h-3V8.8h3V21.6z"/>
<path class="st0" d="M162.8,14.9c0,0.9-0.1,1.9-0.4,2.8c-0.3,0.8-0.7,1.5-1.3,2.1c-0.6,0.6-1.2,1.1-2,1.4c-1.6,0.6-3.4,0.6-5,0
	c-0.7-0.3-1.4-0.8-1.9-1.4c-0.6-0.6-1-1.4-1.3-2.1c-0.3-0.9-0.5-1.8-0.4-2.8c0-0.9,0.1-1.9,0.4-2.8c0.3-0.8,0.7-1.5,1.3-2.1
	c0.5-0.6,1.2-1,1.9-1.4c0.8-0.3,1.6-0.5,2.5-0.5c0.9,0,1.7,0.2,2.5,0.5c0.8,0.3,1.4,0.8,2,1.4c0.6,0.6,1,1.3,1.3,2.1
	C162.7,13,162.8,13.9,162.8,14.9z M159.8,14.9c0-1.1-0.2-2.1-0.8-3c-1-1.3-2.8-1.5-4.1-0.5c-0.2,0.1-0.3,0.3-0.5,0.5
	c-0.6,0.9-0.9,1.9-0.8,3c-0.1,1.1,0.2,2.2,0.8,3.1c1,1.3,2.8,1.5,4.1,0.5c0.2-0.2,0.4-0.3,0.5-0.5C159.5,17,159.8,15.9,159.8,14.9
	L159.8,14.9z"/>
<path class="st0" d="M165.7,9.2c0.7-0.2,1.5-0.3,2.2-0.5c1-0.2,2-0.2,3.1-0.2c0.9,0,1.8,0.1,2.6,0.4c0.7,0.2,1.2,0.7,1.7,1.2
	c0.4,0.6,0.7,1.2,0.9,1.9c0.2,0.8,0.3,1.6,0.3,2.4v7.2h-3v-6.8c0-0.6,0-1.2-0.1-1.8c-0.1-0.4-0.2-0.8-0.4-1.2
	c-0.2-0.3-0.5-0.5-0.8-0.7c-0.4-0.1-0.9-0.2-1.3-0.2c-0.4,0-0.8,0-1.2,0.1s-0.7,0.1-0.9,0.1v10.4h-3L165.7,9.2z"/>
<path class="st0" d="M298.3,2.7v62.6h-96.6V2.7H298.3 M301.1,0h-102v68h102C301.1,68,301.1,0,301.1,0z"/>
<polygon class="st0" points="247.9,14.8 250,13.3 252.2,14.8 251.4,12.3 253.6,10.7 250.8,10.7 250,8.1 249.2,10.7 246.5,10.7 
	248.7,12.3 "/>
<polygon class="st0" points="236.7,17.8 238.9,16.2 241,17.8 240.2,15.3 242.4,13.7 239.7,13.7 238.9,11.1 238.1,13.7 235.4,13.7 
	237.6,15.3 "/>
<polygon class="st0" points="230.7,19.3 229.9,21.9 227.2,21.9 229.4,23.4 228.6,26 230.7,24.4 232.9,26 232.1,23.4 234.3,21.9 
	231.6,21.9 "/>
<polygon class="st0" points="227.7,35.5 229.9,37.1 229.1,34.6 231.3,33 228.6,33 227.7,30.4 226.9,33 224.2,33 226.4,34.6 
	225.6,37.1 "/>
<polygon class="st0" points="231.6,44.2 230.7,41.6 229.9,44.2 227.2,44.2 229.4,45.7 228.6,48.3 230.7,46.7 232.9,48.3 232.1,45.7 
	234.3,44.2 "/>
<polygon class="st0" points="239.7,52.3 238.9,49.8 238.1,52.3 235.4,52.3 237.6,53.9 236.8,56.4 238.9,54.9 241.1,56.4 240.2,53.9 
	242.4,52.3 "/>
<polygon class="st0" points="250.8,55.3 250,52.7 249.2,55.3 246.5,55.3 248.7,56.9 247.9,59.4 250,57.8 252.2,59.4 251.4,56.9 
	253.6,55.3 "/>
<polygon class="st0" points="262,52.3 261.1,49.8 260.3,52.3 257.6,52.3 259.8,53.9 259,56.4 261.1,54.9 263.3,56.4 262.5,53.9 
	264.7,52.3 "/>
<polygon class="st0" points="270.1,44.2 269.3,41.6 268.5,44.2 265.8,44.2 268,45.7 267.2,48.3 269.3,46.7 271.5,48.3 270.7,45.7 
	272.8,44.2 "/>
<polygon class="st0" points="275.8,33 273.1,33 272.3,30.4 271.5,33 268.8,33 270.9,34.5 270.1,37.1 272.3,35.5 274.4,37.1 
	273.6,34.5 "/>
<polygon class="st0" points="267.2,25.9 269.3,24.4 271.5,25.9 270.7,23.4 272.8,21.8 270.1,21.8 269.3,19.3 268.5,21.9 265.8,21.8 
	268,23.4 "/>
<polygon class="st0" points="261.2,11.1 260.4,13.7 257.7,13.7 259.9,15.3 259,17.8 261.2,16.2 263.3,17.8 262.5,15.3 264.7,13.7 
	262,13.7 "/>
</svg>
